<mxfile host="app.diagrams.net" modified="2022-09-06T08:54:51.811Z" agent="5.0 (Macintosh; Intel Mac OS X 10_15_7) AppleWebKit/537.36 (KHTML, like Gecko) Chrome/104.0.0.0 Safari/537.36" etag="SiaKNhqwQKYIXznQivQE" version="20.2.8" type="github">
  <diagram id="NXv0pELMYCjsuVXl-Eik" name="第 1 页">
    <mxGraphModel dx="929" dy="566" grid="1" gridSize="10" guides="1" tooltips="1" connect="1" arrows="1" fold="1" page="1" pageScale="1" pageWidth="827" pageHeight="1169" math="0" shadow="0">
      <root>
        <mxCell id="0" />
        <mxCell id="1" parent="0" />
        <mxCell id="U8P-30OzF6ij05lUr_d0-2" value="" style="shape=crossbar;whiteSpace=wrap;html=1;rounded=1;" vertex="1" parent="1">
          <mxGeometry x="140" y="120" width="620" height="30" as="geometry" />
        </mxCell>
        <mxCell id="U8P-30OzF6ij05lUr_d0-4" value="发起请求" style="rounded=1;whiteSpace=wrap;html=1;" vertex="1" parent="1">
          <mxGeometry x="140" y="190" width="90" height="40" as="geometry" />
        </mxCell>
        <mxCell id="U8P-30OzF6ij05lUr_d0-5" value="dns解析" style="rounded=1;whiteSpace=wrap;html=1;" vertex="1" parent="1">
          <mxGeometry x="240" y="190" width="90" height="40" as="geometry" />
        </mxCell>
        <mxCell id="U8P-30OzF6ij05lUr_d0-6" value="服务器查询" style="rounded=1;whiteSpace=wrap;html=1;" vertex="1" parent="1">
          <mxGeometry x="240" y="270" width="90" height="40" as="geometry" />
        </mxCell>
        <mxCell id="U8P-30OzF6ij05lUr_d0-7" value="本地缓存" style="rounded=1;whiteSpace=wrap;html=1;" vertex="1" parent="1">
          <mxGeometry x="240" y="230" width="90" height="40" as="geometry" />
        </mxCell>
        <mxCell id="U8P-30OzF6ij05lUr_d0-10" value="创建握手" style="rounded=1;whiteSpace=wrap;html=1;" vertex="1" parent="1">
          <mxGeometry x="350" y="190" width="90" height="40" as="geometry" />
        </mxCell>
        <mxCell id="U8P-30OzF6ij05lUr_d0-11" value="握手" style="rounded=1;whiteSpace=wrap;html=1;" vertex="1" parent="1">
          <mxGeometry x="350" y="230" width="90" height="40" as="geometry" />
        </mxCell>
        <mxCell id="U8P-30OzF6ij05lUr_d0-13" value="tls" style="rounded=1;whiteSpace=wrap;html=1;" vertex="1" parent="1">
          <mxGeometry x="350" y="270" width="90" height="40" as="geometry" />
        </mxCell>
        <mxCell id="U8P-30OzF6ij05lUr_d0-14" value="dns解析" style="rounded=1;whiteSpace=wrap;html=1;" vertex="1" parent="1">
          <mxGeometry x="460" y="190" width="90" height="40" as="geometry" />
        </mxCell>
        <mxCell id="U8P-30OzF6ij05lUr_d0-15" value="服务器查询" style="rounded=1;whiteSpace=wrap;html=1;" vertex="1" parent="1">
          <mxGeometry x="460" y="270" width="90" height="40" as="geometry" />
        </mxCell>
        <mxCell id="U8P-30OzF6ij05lUr_d0-16" value="本地缓存" style="rounded=1;whiteSpace=wrap;html=1;" vertex="1" parent="1">
          <mxGeometry x="460" y="230" width="90" height="40" as="geometry" />
        </mxCell>
        <mxCell id="U8P-30OzF6ij05lUr_d0-17" value="dns解析" style="rounded=1;whiteSpace=wrap;html=1;" vertex="1" parent="1">
          <mxGeometry x="570" y="190" width="90" height="40" as="geometry" />
        </mxCell>
        <mxCell id="U8P-30OzF6ij05lUr_d0-18" value="服务器查询" style="rounded=1;whiteSpace=wrap;html=1;" vertex="1" parent="1">
          <mxGeometry x="570" y="270" width="90" height="40" as="geometry" />
        </mxCell>
        <mxCell id="U8P-30OzF6ij05lUr_d0-19" value="本地缓存" style="rounded=1;whiteSpace=wrap;html=1;" vertex="1" parent="1">
          <mxGeometry x="570" y="230" width="90" height="40" as="geometry" />
        </mxCell>
        <mxCell id="U8P-30OzF6ij05lUr_d0-20" value="关闭连接" style="rounded=1;whiteSpace=wrap;html=1;" vertex="1" parent="1">
          <mxGeometry x="670" y="190" width="90" height="40" as="geometry" />
        </mxCell>
        <mxCell id="U8P-30OzF6ij05lUr_d0-22" value="&lt;font style=&quot;font-size: 14px;&quot;&gt;&lt;b&gt;100ms&amp;nbsp; &amp;nbsp; &amp;nbsp; &amp;nbsp; &amp;nbsp; &amp;nbsp; &amp;nbsp; &amp;nbsp; &amp;nbsp;+&amp;nbsp; &amp;nbsp; &amp;nbsp;50ms&amp;nbsp; &amp;nbsp; +&amp;nbsp; &amp;nbsp; &amp;nbsp;250ms&amp;nbsp; &amp;nbsp; &amp;nbsp;+&amp;nbsp; &amp;nbsp; &amp;nbsp; &amp;nbsp;100ms&lt;/b&gt;&lt;/font&gt;" style="text;html=1;align=center;verticalAlign=middle;resizable=0;points=[];autosize=1;strokeColor=none;fillColor=none;" vertex="1" parent="1">
          <mxGeometry x="235" y="145" width="380" height="30" as="geometry" />
        </mxCell>
      </root>
    </mxGraphModel>
  </diagram>
</mxfile>
